<svg width="42" height="42" viewBox="0 0 42 42" fill="none" xmlns="http://www.w3.org/2000/svg">
<path d="M31.8066 5.95923C32.2596 5.95923 32.6269 5.59189 32.6269 5.13892C32.6269 4.68594 32.2596 4.3186 31.8066 4.3186H31.8019C31.3489 4.3186 30.9839 4.68594 30.9839 5.13892C30.9839 5.59189 31.3536 5.95923 31.8066 5.95923Z" fill="white"/>
<path d="M36.2338 5.95923C36.6868 5.95923 37.0541 5.59189 37.0541 5.13892C37.0541 4.68594 36.6868 4.3186 36.2338 4.3186H36.2291C35.7762 4.3186 35.4111 4.68594 35.4111 5.13892C35.4111 5.59189 35.7808 5.95923 36.2338 5.95923Z" fill="white"/>
<path d="M27.3793 5.95923C27.8323 5.95923 28.1996 5.59189 28.1996 5.13892C28.1996 4.68594 27.8323 4.3186 27.3793 4.3186H27.3747C26.9217 4.3186 26.5566 4.68594 26.5566 5.13892C26.5566 5.59189 26.9263 5.95923 27.3793 5.95923Z" fill="white"/>
<path d="M5.76367 5.95923H18.0899C18.5429 5.95923 18.9102 5.59189 18.9102 5.13892C18.9102 4.68594 18.5429 4.3186 18.0899 4.3186H5.76367C5.31061 4.3186 4.94336 4.68594 4.94336 5.13892C4.94336 5.59189 5.31061 5.95923 5.76367 5.95923Z" fill="white"/>
<path d="M39.3684 0.00146484H2.63173C1.18059 0.00146484 0 1.18198 0 2.63311V33.0079C0 34.4589 1.18059 35.6395 2.63173 35.6395H9.19702C9.72054 36.4321 10.3281 37.1767 11.0155 37.8641C13.6828 40.5314 17.2287 42.0003 21 42.0003C24.7714 42.0003 28.3173 40.5314 30.9846 37.8641C31.6761 37.1725 32.2807 36.4264 32.7985 35.6395H39.3684C40.8194 35.6395 42 34.4589 42 33.0079V2.63311C42 1.18198 40.8194 0.00146484 39.3684 0.00146484ZM2.63173 1.64209H39.3684C39.9148 1.64209 40.3594 2.0867 40.3594 2.63311V8.63977H1.64062V2.63311C1.64062 2.0867 2.08523 1.64209 2.63173 1.64209ZM39.3684 33.9989H33.7252C36.2451 28.7459 35.3323 22.2451 30.9846 17.8973C28.7742 15.687 25.9721 14.3002 22.8811 13.8869C19.8896 13.4871 16.7953 14.067 14.1679 15.5203C13.7714 15.7397 13.6278 16.2387 13.847 16.6352C14.0663 17.0316 14.5656 17.1752 14.9618 16.956C19.7996 14.2801 25.9113 15.1443 29.8244 19.0574C34.6896 23.9226 34.6896 31.8389 29.8244 36.7039C27.467 39.0613 24.3331 40.3596 21 40.3596C17.6669 40.3596 14.533 39.0613 12.1756 36.7039C8.26301 32.7914 7.39889 26.6807 10.0741 21.8438C10.2934 21.4473 10.1497 20.9482 9.75327 20.7289C9.35698 20.5096 8.85773 20.6532 8.63846 21.0497C7.1852 23.6771 6.60516 26.7711 7.00506 29.7618C7.20448 31.2527 7.63112 32.6762 8.26694 33.9988H2.63173C2.08523 33.9988 1.64062 33.5542 1.64062 33.0078V10.2802H40.3594V33.0078C40.3594 33.5543 39.9148 33.9989 39.3684 33.9989Z" fill="white"/>
<path d="M20.999 32.6065C21.4521 32.6065 21.8193 32.2392 21.8193 31.7862V29.8284C21.8193 29.3754 21.452 29.0081 20.999 29.0081C20.546 29.0081 20.1787 29.3754 20.1787 29.8284V31.7862C20.1787 32.2393 20.546 32.6065 20.999 32.6065Z" fill="white"/>
<path d="M20.9989 37.2826C24.8745 37.2826 28.0276 34.1294 28.0276 30.2538V27.117C28.0276 26.0557 27.2644 25.1697 26.2582 24.9778V22.8269C26.2582 20.4053 24.2879 18.4351 21.8662 18.4351H20.1316C17.7099 18.4351 15.7397 20.4053 15.7397 22.8269V24.9781C14.7333 25.1707 13.9702 26.0563 13.9702 27.117V30.2538C13.9701 34.1295 17.1232 37.2826 20.9989 37.2826ZM17.3803 22.8269C17.3803 21.3099 18.6145 20.0757 20.1316 20.0757H21.8662C23.3833 20.0757 24.6175 21.3099 24.6175 22.8269V24.9387H17.3803V22.8269ZM15.6108 27.117C15.6108 26.8255 15.8581 26.5794 16.1508 26.5794H25.8493C26.1408 26.5794 26.387 26.8255 26.387 27.117V30.2538C26.387 33.2248 23.9699 35.6419 20.9989 35.6419C18.0279 35.6419 15.6108 33.2248 15.6108 30.2538V27.117Z" fill="white"/>
<path d="M11.0156 17.8965C10.6953 18.2169 10.6953 18.7363 11.0156 19.0567C11.1758 19.2168 11.3858 19.297 11.5957 19.297C11.8056 19.297 12.0156 19.2168 12.1757 19.0567L12.178 19.0544C12.4984 18.7341 12.4972 18.2158 12.1769 17.8955C11.8565 17.5751 11.3361 17.5762 11.0156 17.8965Z" fill="white"/>
</svg>
